<?xml version="1.0" encoding="UTF-8"?>
<svg version="1.1" xmlns="http://www.w3.org/2000/svg" width="57" height="62">
<path d="M0 0 C18.81 0 37.62 0 57 0 C57 20.46 57 40.92 57 62 C38.19 62 19.38 62 0 62 C0 41.54 0 21.08 0 0 Z " fill="#E4E4E4" transform="translate(0,0)"/>
<path d="M0 0 C0.33 7.59 0.66 15.18 1 23 C3.475 23.99 3.475 23.99 6 25 C6 27.31 6 29.62 6 32 C-3.0910031 32.4622544 -3.0910031 32.4622544 -7 29 C-11.23028446 22.58163737 -11.01750041 14.42695181 -10 7 C-7.09547175 1.80524825 -6.05791417 0 0 0 Z " fill="#282828" transform="translate(15,13)"/>
<path d="M0 0 C4.29 0 8.58 0 13 0 C13 6.27 13 12.54 13 19 C10.03 19.33 7.06 19.66 4 20 C4 15.71 4 11.42 4 7 C2.68 7 1.36 7 0 7 C0 4.69 0 2.38 0 0 Z " fill="#272727" transform="translate(19,25)"/>
<path d="M0 0 C5.12583611 -0.10251672 9.94997778 -0.03590199 15 1 C15 2.98 15 4.96 15 7 C10.05 7 5.1 7 0 7 C0 4.69 0 2.38 0 0 Z " fill="#272727" transform="translate(17,12)"/>
<path d="M0 0 C3.3 0 6.6 0 10 0 C10 2.64 10 5.28 10 8 C6.7 8 3.4 8 0 8 C0 5.36 0 2.72 0 0 Z " fill="#E38649" transform="translate(41,37)"/>
</svg>
